<svg width="30" height="33" viewBox="0 0 30 33" fill="none" xmlns="http://www.w3.org/2000/svg">
<path fill-rule="evenodd" clip-rule="evenodd" d="M10.0376 30.7955C7.17302 29.9884 4.17391 29.5812 1.26459 29.2082C0.637965 29.13 0.0561878 29.5664 0.011429 30.1811C-0.0780887 30.7964 0.369762 31.359 0.951627 31.4372C3.77143 31.7962 6.6805 32.1805 9.41079 32.9574C9.99265 33.126 10.6195 32.779 10.7986 32.1823C10.9776 31.5859 10.6194 30.9644 10.0376 30.7955Z" fill="#D71616"/>
<path fill-rule="evenodd" clip-rule="evenodd" d="M18.7204 19.3528C14.1102 14.6293 8.91819 10.5138 4.39754 5.66355C3.99471 5.21056 3.27857 5.1863 2.83098 5.60917C2.38339 6.03249 2.33881 6.74432 2.7864 7.1973C7.30704 12.0615 12.4991 16.1904 17.1092 20.9279C17.5568 21.3701 18.2728 21.3763 18.7204 20.9413C19.1232 20.5068 19.168 19.795 18.7204 19.3528Z" fill="#D71616"/>
<path fill-rule="evenodd" clip-rule="evenodd" d="M27.3595 1.18448C27.4938 3.88798 27.6278 6.59149 27.7621 9.29545C27.7621 9.9147 28.2995 10.3929 28.9261 10.3627C29.5527 10.3322 30 9.80506 30 9.18535C29.8658 6.47735 29.7317 3.76979 29.5975 1.06224C29.5527 0.442986 29.0155 -0.0320157 28.3889 0.00168827C27.807 0.0353923 27.3148 0.56567 27.3595 1.18448Z" fill="#D71616"/>
</svg>
