<svg width="207" height="25" viewBox="0 0 207 25" fill="none" xmlns="http://www.w3.org/2000/svg">
<path d="M10.8633 7.02246C10.1797 7.02246 9.56934 7.16895 9.03223 7.46191C8.49512 7.74512 8.03613 8.16016 7.65527 8.70703C7.27441 9.25391 6.98145 9.92285 6.77637 10.7139C6.58105 11.4951 6.4834 12.3838 6.4834 13.3799C6.4834 14.7275 6.6543 15.8604 6.99609 16.7783C7.33789 17.6963 7.85547 18.3896 8.54883 18.8584C9.25195 19.3271 10.1309 19.5615 11.1855 19.5615C12.1426 19.5615 13.0605 19.4297 13.9395 19.166C14.8281 18.9023 15.7217 18.585 16.6201 18.2139V23.1064C15.6729 23.5264 14.7012 23.8291 13.7051 24.0146C12.7188 24.2002 11.6689 24.293 10.5557 24.293C8.23145 24.293 6.32715 23.834 4.84277 22.916C3.36816 21.9883 2.2793 20.7041 1.57617 19.0635C0.882812 17.4229 0.536133 15.5186 0.536133 13.3506C0.536133 11.7295 0.760742 10.2451 1.20996 8.89746C1.66895 7.5498 2.33789 6.38281 3.2168 5.39648C4.0957 4.40039 5.17969 3.63379 6.46875 3.09668C7.76758 2.5498 9.25195 2.27637 10.9219 2.27637C11.957 2.27637 13.0459 2.39844 14.1885 2.64258C15.3408 2.87695 16.4639 3.25781 17.5576 3.78516L15.7852 8.34082C15.0039 7.96973 14.2129 7.65723 13.4121 7.40332C12.6113 7.14941 11.7617 7.02246 10.8633 7.02246Z" fill="white"/>
<path d="M30.4922 7.11035C30.8047 7.11035 31.1318 7.13477 31.4736 7.18359C31.8154 7.22266 32.0693 7.25684 32.2354 7.28613L31.7227 12.6914C31.5371 12.6426 31.2979 12.6035 31.0049 12.5742C30.7119 12.5352 30.3018 12.5156 29.7744 12.5156C29.4131 12.5156 29.0273 12.5498 28.6172 12.6182C28.207 12.6865 27.8164 12.833 27.4453 13.0576C27.084 13.2725 26.7861 13.6045 26.5518 14.0537C26.3174 14.4932 26.2002 15.0889 26.2002 15.8408V24H20.4727V7.40332H24.7354L25.6289 10.0547H25.9072C26.21 9.50781 26.5957 9.01465 27.0645 8.5752C27.543 8.12598 28.0752 7.76953 28.6611 7.50586C29.2568 7.24219 29.8672 7.11035 30.4922 7.11035Z" fill="white"/>
<path d="M42.0352 7.11035C43.6465 7.11035 45.0381 7.39355 46.21 7.95996C47.3818 8.5166 48.2852 9.35645 48.9199 10.4795C49.5547 11.6025 49.8721 13.0088 49.8721 14.6982V17.2471H39.6328C39.6816 18.1162 40.0039 18.8291 40.5996 19.3857C41.2051 19.9424 42.0938 20.2207 43.2656 20.2207C44.3008 20.2207 45.248 20.1182 46.1074 19.9131C46.9766 19.708 47.8701 19.3906 48.7881 18.9609V23.0771C47.9873 23.4971 47.1133 23.8047 46.166 24C45.2188 24.1953 44.0225 24.293 42.5771 24.293C40.9072 24.293 39.4131 23.9951 38.0947 23.3994C36.7764 22.8037 35.7363 21.8809 34.9746 20.6309C34.2227 19.3809 33.8467 17.7744 33.8467 15.8115C33.8467 13.8193 34.1885 12.1836 34.8721 10.9043C35.5557 9.61523 36.5127 8.66309 37.7432 8.04785C38.9736 7.42285 40.4043 7.11035 42.0352 7.11035ZM42.2402 11.0068C41.5664 11.0068 41 11.2217 40.541 11.6514C40.0918 12.0713 39.8281 12.7354 39.75 13.6436H44.6719C44.6621 13.1553 44.5645 12.7109 44.3789 12.3105C44.1934 11.9102 43.9199 11.5928 43.5586 11.3584C43.207 11.124 42.7676 11.0068 42.2402 11.0068Z" fill="white"/>
<path d="M58.2656 24.293C56.5566 24.293 55.1504 23.5654 54.0469 22.1104C52.9434 20.6553 52.3916 18.5264 52.3916 15.7236C52.3916 12.8916 52.958 10.748 54.0908 9.29297C55.2236 7.83789 56.6885 7.11035 58.4854 7.11035C59.2275 7.11035 59.8672 7.21777 60.4043 7.43262C60.9414 7.64746 61.4053 7.94043 61.7959 8.31152C62.1963 8.67285 62.543 9.08301 62.8359 9.54199H62.9531C62.8848 9.12207 62.8213 8.5459 62.7627 7.81348C62.7041 7.07129 62.6748 6.34863 62.6748 5.64551V1.20703H68.4463V24H64.125L62.8945 21.9053H62.6748C62.4111 22.3447 62.0791 22.7451 61.6787 23.1064C61.2881 23.4678 60.8096 23.7559 60.2432 23.9707C59.6865 24.1855 59.0273 24.293 58.2656 24.293ZM60.6094 19.7666C61.5273 19.7666 62.1719 19.4785 62.543 18.9023C62.9238 18.3164 63.1289 17.4277 63.1582 16.2363V15.7822C63.1582 14.4736 62.9727 13.4727 62.6016 12.7793C62.2402 12.0762 61.5566 11.7246 60.5508 11.7246C59.8672 11.7246 59.3008 12.0566 58.8516 12.7207C58.4023 13.3848 58.1777 14.415 58.1777 15.8115C58.1777 17.1885 58.4023 18.1943 58.8516 18.8291C59.3105 19.4541 59.8965 19.7666 60.6094 19.7666Z" fill="white"/>
<path d="M78.1729 7.40332V24H72.4453V7.40332H78.1729ZM75.3311 0.723633C76.1514 0.723633 76.8643 0.894531 77.4697 1.23633C78.085 1.57812 78.3926 2.25684 78.3926 3.27246C78.3926 4.25879 78.085 4.92773 77.4697 5.2793C76.8643 5.62109 76.1514 5.79199 75.3311 5.79199C74.4912 5.79199 73.7734 5.62109 73.1777 5.2793C72.5918 4.92773 72.2988 4.25879 72.2988 3.27246C72.2988 2.25684 72.5918 1.57812 73.1777 1.23633C73.7734 0.894531 74.4912 0.723633 75.3311 0.723633Z" fill="white"/>
<path d="M90.3018 19.7666C90.8193 19.7666 91.293 19.7129 91.7227 19.6055C92.1523 19.498 92.6016 19.3613 93.0703 19.1953V23.3701C92.4453 23.6436 91.7812 23.8633 91.0781 24.0293C90.3848 24.2051 89.4961 24.293 88.4121 24.293C87.3379 24.293 86.3906 24.127 85.5703 23.7949C84.75 23.4531 84.1104 22.8672 83.6514 22.0371C83.2021 21.1973 82.9775 20.0303 82.9775 18.5361V11.6953H80.9707V9.36621L83.5195 7.56445L84.999 4.07812H88.749V7.40332H92.8213V11.6953H88.749V18.1553C88.749 18.6924 88.8857 19.0977 89.1592 19.3711C89.4326 19.6348 89.8135 19.7666 90.3018 19.7666Z" fill="white"/>
<path d="M110.312 17.4961C110.312 18.6582 110.019 19.7617 109.433 20.8066C108.847 21.8418 107.934 22.6816 106.693 23.3262C105.463 23.9707 103.871 24.293 101.918 24.293C100.941 24.293 100.082 24.249 99.3398 24.1611C98.6074 24.0732 97.9238 23.9316 97.2891 23.7363C96.6543 23.5312 95.9951 23.2676 95.3115 22.9453V17.7891C96.4736 18.375 97.6455 18.8242 98.8271 19.1367C100.009 19.4395 101.078 19.5908 102.035 19.5908C102.611 19.5908 103.08 19.5225 103.441 19.3857C103.812 19.249 104.086 19.0635 104.262 18.8291C104.438 18.585 104.525 18.3066 104.525 17.9941C104.525 17.623 104.394 17.3105 104.13 17.0566C103.876 16.793 103.466 16.5195 102.899 16.2363C102.333 15.9531 101.586 15.6016 100.658 15.1816C99.8672 14.8105 99.1494 14.4297 98.5049 14.0391C97.8701 13.6484 97.3232 13.2041 96.8643 12.7061C96.415 12.1982 96.0684 11.6074 95.8242 10.9336C95.5801 10.2598 95.458 9.46387 95.458 8.5459C95.458 7.16895 95.7949 6.0166 96.4688 5.08887C97.1523 4.15137 98.0996 3.44824 99.3105 2.97949C100.531 2.51074 101.938 2.27637 103.529 2.27637C104.926 2.27637 106.181 2.43262 107.294 2.74512C108.417 3.05762 109.423 3.41406 110.312 3.81445L108.539 8.28223C107.621 7.8623 106.718 7.53027 105.829 7.28613C104.94 7.03223 104.115 6.90527 103.354 6.90527C102.855 6.90527 102.445 6.96875 102.123 7.0957C101.811 7.21289 101.576 7.37402 101.42 7.5791C101.273 7.78418 101.2 8.01855 101.2 8.28223C101.2 8.61426 101.327 8.91211 101.581 9.17578C101.845 9.43945 102.279 9.72754 102.885 10.04C103.5 10.3428 104.335 10.7383 105.39 11.2266C106.435 11.6953 107.323 12.2031 108.056 12.75C108.788 13.2871 109.345 13.9365 109.726 14.6982C110.116 15.4502 110.312 16.3828 110.312 17.4961Z" fill="white"/>
<path d="M120.756 7.11035C122.367 7.11035 123.759 7.39355 124.931 7.95996C126.103 8.5166 127.006 9.35645 127.641 10.4795C128.275 11.6025 128.593 13.0088 128.593 14.6982V17.2471H118.354C118.402 18.1162 118.725 18.8291 119.32 19.3857C119.926 19.9424 120.814 20.2207 121.986 20.2207C123.021 20.2207 123.969 20.1182 124.828 19.9131C125.697 19.708 126.591 19.3906 127.509 18.9609V23.0771C126.708 23.4971 125.834 23.8047 124.887 24C123.939 24.1953 122.743 24.293 121.298 24.293C119.628 24.293 118.134 23.9951 116.815 23.3994C115.497 22.8037 114.457 21.8809 113.695 20.6309C112.943 19.3809 112.567 17.7744 112.567 15.8115C112.567 13.8193 112.909 12.1836 113.593 10.9043C114.276 9.61523 115.233 8.66309 116.464 8.04785C117.694 7.42285 119.125 7.11035 120.756 7.11035ZM120.961 11.0068C120.287 11.0068 119.721 11.2217 119.262 11.6514C118.812 12.0713 118.549 12.7354 118.471 13.6436H123.393C123.383 13.1553 123.285 12.7109 123.1 12.3105C122.914 11.9102 122.641 11.5928 122.279 11.3584C121.928 11.124 121.488 11.0068 120.961 11.0068Z" fill="white"/>
<path d="M139.389 24.293C137.709 24.293 136.249 23.9951 135.009 23.3994C133.769 22.7939 132.807 21.8662 132.123 20.6162C131.449 19.3564 131.112 17.7451 131.112 15.7822C131.112 13.7705 131.488 12.125 132.24 10.8457C133.002 9.56641 134.042 8.62402 135.36 8.01855C136.679 7.41309 138.173 7.11035 139.843 7.11035C140.858 7.11035 141.82 7.22266 142.729 7.44727C143.646 7.67188 144.496 7.97949 145.277 8.37012L143.593 12.6035C142.909 12.3008 142.27 12.0615 141.674 11.8857C141.088 11.7002 140.478 11.6074 139.843 11.6074C139.267 11.6074 138.759 11.7588 138.319 12.0615C137.88 12.3643 137.538 12.8232 137.294 13.4385C137.05 14.0439 136.928 14.8154 136.928 15.7529C136.928 16.71 137.05 17.4814 137.294 18.0674C137.548 18.6533 137.895 19.0781 138.334 19.3418C138.783 19.6055 139.296 19.7373 139.872 19.7373C140.702 19.7373 141.527 19.6104 142.348 19.3564C143.178 19.0928 143.964 18.7314 144.706 18.2725V22.8281C144.022 23.2773 143.251 23.6338 142.392 23.8975C141.532 24.1611 140.531 24.293 139.389 24.293Z" fill="white"/>
<path d="M158.021 7.11035C158.334 7.11035 158.661 7.13477 159.003 7.18359C159.345 7.22266 159.599 7.25684 159.765 7.28613L159.252 12.6914C159.066 12.6426 158.827 12.6035 158.534 12.5742C158.241 12.5352 157.831 12.5156 157.304 12.5156C156.942 12.5156 156.557 12.5498 156.146 12.6182C155.736 12.6865 155.346 12.833 154.975 13.0576C154.613 13.2725 154.315 13.6045 154.081 14.0537C153.847 14.4932 153.729 15.0889 153.729 15.8408V24H148.002V7.40332H152.265L153.158 10.0547H153.437C153.739 9.50781 154.125 9.01465 154.594 8.5752C155.072 8.12598 155.604 7.76953 156.19 7.50586C156.786 7.24219 157.396 7.11035 158.021 7.11035Z" fill="white"/>
<path d="M169.564 7.11035C171.176 7.11035 172.567 7.39355 173.739 7.95996C174.911 8.5166 175.814 9.35645 176.449 10.4795C177.084 11.6025 177.401 13.0088 177.401 14.6982V17.2471H167.162C167.211 18.1162 167.533 18.8291 168.129 19.3857C168.734 19.9424 169.623 20.2207 170.795 20.2207C171.83 20.2207 172.777 20.1182 173.637 19.9131C174.506 19.708 175.399 19.3906 176.317 18.9609V23.0771C175.517 23.4971 174.643 23.8047 173.695 24C172.748 24.1953 171.552 24.293 170.106 24.293C168.437 24.293 166.942 23.9951 165.624 23.3994C164.306 22.8037 163.266 21.8809 162.504 20.6309C161.752 19.3809 161.376 17.7744 161.376 15.8115C161.376 13.8193 161.718 12.1836 162.401 10.9043C163.085 9.61523 164.042 8.66309 165.272 8.04785C166.503 7.42285 167.934 7.11035 169.564 7.11035ZM169.77 11.0068C169.096 11.0068 168.529 11.2217 168.07 11.6514C167.621 12.0713 167.357 12.7354 167.279 13.6436H172.201C172.191 13.1553 172.094 12.7109 171.908 12.3105C171.723 11.9102 171.449 11.5928 171.088 11.3584C170.736 11.124 170.297 11.0068 169.77 11.0068Z" fill="white"/>
<path d="M188.769 19.7666C189.286 19.7666 189.76 19.7129 190.189 19.6055C190.619 19.498 191.068 19.3613 191.537 19.1953V23.3701C190.912 23.6436 190.248 23.8633 189.545 24.0293C188.852 24.2051 187.963 24.293 186.879 24.293C185.805 24.293 184.857 24.127 184.037 23.7949C183.217 23.4531 182.577 22.8672 182.118 22.0371C181.669 21.1973 181.444 20.0303 181.444 18.5361V11.6953H179.438V9.36621L181.986 7.56445L183.466 4.07812H187.216V7.40332H191.288V11.6953H187.216V18.1553C187.216 18.6924 187.353 19.0977 187.626 19.3711C187.899 19.6348 188.28 19.7666 188.769 19.7666Z" fill="white"/>
<path d="M206.771 18.9023C206.771 19.957 206.537 20.8896 206.068 21.7002C205.6 22.5107 204.848 23.1455 203.812 23.6045C202.787 24.0635 201.435 24.293 199.755 24.293C198.573 24.293 197.514 24.2295 196.576 24.1025C195.648 23.9756 194.706 23.7314 193.749 23.3701V18.7852C194.794 19.2637 195.858 19.6104 196.942 19.8252C198.026 20.0303 198.881 20.1328 199.506 20.1328C200.15 20.1328 200.619 20.0645 200.912 19.9277C201.215 19.7812 201.366 19.5664 201.366 19.2832C201.366 19.0391 201.264 18.834 201.059 18.668C200.863 18.4922 200.507 18.292 199.989 18.0674C199.481 17.8428 198.764 17.54 197.836 17.1592C196.918 16.7783 196.151 16.3633 195.536 15.9141C194.931 15.4648 194.477 14.9277 194.174 14.3027C193.871 13.6777 193.72 12.9111 193.72 12.0029C193.72 10.3818 194.345 9.16113 195.595 8.34082C196.845 7.52051 198.5 7.11035 200.561 7.11035C201.654 7.11035 202.685 7.23242 203.651 7.47656C204.618 7.71094 205.619 8.05762 206.654 8.5166L205.087 12.208C204.267 11.8369 203.437 11.5391 202.597 11.3145C201.757 11.0898 201.088 10.9775 200.59 10.9775C200.141 10.9775 199.794 11.0361 199.55 11.1533C199.306 11.2705 199.184 11.4414 199.184 11.666C199.184 11.8711 199.267 12.0518 199.433 12.208C199.608 12.3643 199.936 12.5449 200.414 12.75C200.893 12.9551 201.591 13.2432 202.509 13.6143C203.476 14.0049 204.271 14.4248 204.896 14.874C205.531 15.3135 206 15.8506 206.303 16.4854C206.615 17.1201 206.771 17.9258 206.771 18.9023Z" fill="white"/>
</svg>
