<svg width="40" height="40" viewBox="0 0 40 40" fill="none" xmlns="http://www.w3.org/2000/svg">
<circle cx="20" cy="20" r="20" fill="#1F0C0E"/>
<path d="M16.4011 22.2181C15.9085 22.0763 15.4159 22.0043 14.9367 22.0043C14.1968 22.0043 13.5794 22.1734 13.1007 22.3805C13.5622 20.6908 14.6709 17.7753 16.8796 17.447C17.0842 17.4166 17.2518 17.2687 17.3076 17.0696L17.7903 15.343C17.831 15.197 17.8069 15.0407 17.7236 14.9139C17.6403 14.7872 17.5065 14.7027 17.3565 14.6821C17.1935 14.6599 17.0273 14.6486 16.8626 14.6486C14.2115 14.6486 11.586 17.4157 10.4781 21.3779C9.8277 23.7024 9.637 27.1971 11.239 29.3968C12.1354 30.6277 13.4432 31.2849 15.1262 31.3506C15.1331 31.3508 15.1398 31.351 15.1467 31.351C17.2233 31.351 19.0646 29.9526 19.6247 27.9505C19.9593 26.7536 19.8081 25.4984 19.1984 24.4153C18.5953 23.3443 17.6019 22.5636 16.4011 22.2181Z" fill="#D71616"/>
<path d="M29.3994 24.4155C28.7963 23.3443 27.8029 22.5636 26.6021 22.2181C26.1095 22.0763 25.6169 22.0043 25.1379 22.0043C24.398 22.0043 23.7804 22.1734 23.3016 22.3805C23.7632 20.6908 24.8719 17.7753 27.0808 17.447C27.2854 17.4166 27.4528 17.2687 27.5088 17.0696L27.9915 15.343C28.0322 15.197 28.0081 15.0407 27.9248 14.9139C27.8417 14.7872 27.7079 14.7027 27.5577 14.6821C27.3949 14.6599 27.2287 14.6486 27.0638 14.6486C24.4127 14.6486 21.7872 17.4157 20.679 21.3779C20.0289 23.7024 19.8382 27.1971 21.4404 29.3972C22.3366 30.6279 23.6446 31.2854 25.3274 31.3508C25.3343 31.351 25.341 31.3512 25.3481 31.3512C27.4244 31.3512 29.266 29.9528 29.8261 27.9507C30.1603 26.7538 30.0089 25.4984 29.3994 24.4155Z" fill="#D71616"/>
</svg>
