<svg width="77" height="32" viewBox="0 0 77 32" fill="none" xmlns="http://www.w3.org/2000/svg">
<g filter="url(#filter0_d_7123_547)">
<path d="M24 9L25.0978 8.7418L25.1458 8L25.8725 8.5822L27 8.382L26.3512 9L27 9.618L25.8725 9.4178L25.1458 10L25.0978 9.2582L24 9Z" fill="#D71616"/>
</g>
<g filter="url(#filter1_d_7123_547)">
<path d="M50 9L51.0978 8.7418L51.1458 8L51.8725 8.5822L53 8.382L52.3512 9L53 9.618L51.8725 9.4178L51.1458 10L51.0978 9.2582L50 9Z" fill="#D71616"/>
</g>
<g filter="url(#filter2_d_7123_547)">
<path d="M62 14.5L63.0978 14.1127L63.1458 13L63.8725 13.8733L65 13.573L64.3512 14.5L65 15.427L63.8725 15.1267L63.1458 16L63.0978 14.8873L62 14.5Z" fill="#D71616"/>
</g>
<g filter="url(#filter3_d_7123_547)">
<path d="M12 14.5L13.0978 14.1127L13.1458 13L13.8725 13.8733L15 13.573L14.3512 14.5L15 15.427L13.8725 15.1267L13.1458 16L13.0978 14.8873L12 14.5Z" fill="#D71616"/>
</g>
<g filter="url(#filter4_d_7123_547)">
<path d="M37 13.5L38.0978 13.1127L38.1458 12L38.8725 12.8733L40 12.573L39.3512 13.5L40 14.427L38.8725 14.1267L38.1458 15L38.0978 13.8873L37 13.5Z" fill="#D71616"/>
</g>
<defs>
<filter id="filter0_d_7123_547" x="12" y="0" width="27" height="26" filterUnits="userSpaceOnUse" color-interpolation-filters="sRGB">
<feFlood flood-opacity="0" result="BackgroundImageFix"/>
<feColorMatrix in="SourceAlpha" type="matrix" values="0 0 0 0 0 0 0 0 0 0 0 0 0 0 0 0 0 0 127 0" result="hardAlpha"/>
<feOffset dy="4"/>
<feGaussianBlur stdDeviation="6"/>
<feComposite in2="hardAlpha" operator="out"/>
<feColorMatrix type="matrix" values="0 0 0 0 0.00392157 0 0 0 0 0.839216 0 0 0 0 0.462745 0 0 0 0.75 0"/>
<feBlend mode="normal" in2="BackgroundImageFix" result="effect1_dropShadow_7123_547"/>
<feBlend mode="normal" in="SourceGraphic" in2="effect1_dropShadow_7123_547" result="shape"/>
</filter>
<filter id="filter1_d_7123_547" x="38" y="0" width="27" height="26" filterUnits="userSpaceOnUse" color-interpolation-filters="sRGB">
<feFlood flood-opacity="0" result="BackgroundImageFix"/>
<feColorMatrix in="SourceAlpha" type="matrix" values="0 0 0 0 0 0 0 0 0 0 0 0 0 0 0 0 0 0 127 0" result="hardAlpha"/>
<feOffset dy="4"/>
<feGaussianBlur stdDeviation="6"/>
<feComposite in2="hardAlpha" operator="out"/>
<feColorMatrix type="matrix" values="0 0 0 0 0.00392157 0 0 0 0 0.839216 0 0 0 0 0.462745 0 0 0 0.75 0"/>
<feBlend mode="normal" in2="BackgroundImageFix" result="effect1_dropShadow_7123_547"/>
<feBlend mode="normal" in="SourceGraphic" in2="effect1_dropShadow_7123_547" result="shape"/>
</filter>
<filter id="filter2_d_7123_547" x="50" y="5" width="27" height="27" filterUnits="userSpaceOnUse" color-interpolation-filters="sRGB">
<feFlood flood-opacity="0" result="BackgroundImageFix"/>
<feColorMatrix in="SourceAlpha" type="matrix" values="0 0 0 0 0 0 0 0 0 0 0 0 0 0 0 0 0 0 127 0" result="hardAlpha"/>
<feOffset dy="4"/>
<feGaussianBlur stdDeviation="6"/>
<feComposite in2="hardAlpha" operator="out"/>
<feColorMatrix type="matrix" values="0 0 0 0 0.00392157 0 0 0 0 0.839216 0 0 0 0 0.462745 0 0 0 0.75 0"/>
<feBlend mode="normal" in2="BackgroundImageFix" result="effect1_dropShadow_7123_547"/>
<feBlend mode="normal" in="SourceGraphic" in2="effect1_dropShadow_7123_547" result="shape"/>
</filter>
<filter id="filter3_d_7123_547" x="0" y="5" width="27" height="27" filterUnits="userSpaceOnUse" color-interpolation-filters="sRGB">
<feFlood flood-opacity="0" result="BackgroundImageFix"/>
<feColorMatrix in="SourceAlpha" type="matrix" values="0 0 0 0 0 0 0 0 0 0 0 0 0 0 0 0 0 0 127 0" result="hardAlpha"/>
<feOffset dy="4"/>
<feGaussianBlur stdDeviation="6"/>
<feComposite in2="hardAlpha" operator="out"/>
<feColorMatrix type="matrix" values="0 0 0 0 0.00392157 0 0 0 0 0.839216 0 0 0 0 0.462745 0 0 0 0.75 0"/>
<feBlend mode="normal" in2="BackgroundImageFix" result="effect1_dropShadow_7123_547"/>
<feBlend mode="normal" in="SourceGraphic" in2="effect1_dropShadow_7123_547" result="shape"/>
</filter>
<filter id="filter4_d_7123_547" x="25" y="4" width="27" height="27" filterUnits="userSpaceOnUse" color-interpolation-filters="sRGB">
<feFlood flood-opacity="0" result="BackgroundImageFix"/>
<feColorMatrix in="SourceAlpha" type="matrix" values="0 0 0 0 0 0 0 0 0 0 0 0 0 0 0 0 0 0 127 0" result="hardAlpha"/>
<feOffset dy="4"/>
<feGaussianBlur stdDeviation="6"/>
<feComposite in2="hardAlpha" operator="out"/>
<feColorMatrix type="matrix" values="0 0 0 0 0.00392157 0 0 0 0 0.839216 0 0 0 0 0.462745 0 0 0 0.75 0"/>
<feBlend mode="normal" in2="BackgroundImageFix" result="effect1_dropShadow_7123_547"/>
<feBlend mode="normal" in="SourceGraphic" in2="effect1_dropShadow_7123_547" result="shape"/>
</filter>
</defs>
</svg>
