<svg width="178" height="178" viewBox="0 0 178 178" fill="none" xmlns="http://www.w3.org/2000/svg">
<g clip-path="url(#clip0_7120_483)">
<path fill-rule="evenodd" clip-rule="evenodd" d="M95.8649 45.6422C96.6698 46.5156 97.3675 47.2639 97.7384 47.6574C100.001 50.0466 104.899 56.6627 109.866 60.0987C113.655 62.7213 117.495 63.5062 120.513 60.3613C123.257 57.5029 123.173 52.969 121.243 47.8809C117.089 36.9303 104.607 23.238 99.7677 20.0753C99.2393 19.7303 98.533 19.8774 98.188 20.4059C97.8445 20.9318 97.9916 21.6381 98.5201 21.9831C103.163 25.0193 115.123 38.1775 119.111 48.6902C120.669 52.7995 121.083 56.4739 118.866 58.7825C116.68 61.0619 113.911 60.1249 111.165 58.2236C106.33 54.8807 101.596 48.4163 99.395 46.0887C98.0142 44.6303 92.9051 38.9195 92.3493 38.5355C91.6537 38.0541 91.1088 38.434 90.9393 38.572C90.8079 38.6789 90.1868 39.2539 90.72 40.1432C98.315 52.828 101.19 77.55 95.6776 98.935C90.2143 120.132 76.4422 138.087 50.5253 137.438C49.8957 137.423 49.3721 137.922 49.3551 138.55C49.3405 139.179 49.8388 139.703 50.4684 139.718C77.6236 140.397 92.1628 121.712 97.8865 99.5059C102.711 80.7907 101.223 59.6005 95.8649 45.6422Z" fill="#D71616"/>
<path fill-rule="evenodd" clip-rule="evenodd" d="M51.8472 138.429C53.9739 136.783 56.1437 135.211 58.1437 133.399C63.4728 128.571 67.9876 122.426 70.4434 115.64C70.657 115.046 70.3494 114.393 69.7589 114.178C69.1645 113.965 68.5118 114.273 68.2972 114.863C65.9704 121.304 61.6684 127.127 56.612 131.707C54.3217 133.78 51.8031 135.536 49.3893 137.455C49.27 137.552 48.1957 138.354 48.0155 138.586C47.5926 139.122 47.7603 139.615 47.8671 139.832C47.9541 140.015 48.1021 140.214 48.3619 140.374C48.5758 140.504 49.0398 140.656 49.7034 140.726C51.8281 140.96 56.862 140.793 57.6912 140.853C67.1962 141.539 75.9237 143.774 85.1711 145.896C85.7854 146.035 86.3989 145.652 86.5401 145.039C86.6813 144.426 86.2964 143.815 85.6835 143.674C76.3192 141.523 67.4779 139.273 57.8573 138.579C57.2875 138.536 54.1188 138.471 51.8472 138.429Z" fill="#D71616"/>
</g>
<defs>
<clipPath id="clip0_7120_483">
<rect width="130" height="130" fill="white" transform="translate(177.583 65) rotate(120)"/>
</clipPath>
</defs>
</svg>
