<svg width="28" height="28" viewBox="0 0 28 28" fill="none" xmlns="http://www.w3.org/2000/svg">
<path d="M13.9807 1.0967C6.71806 1.1091 0.831775 6.89013 0.837468 14.0034C0.84316 21.1198 6.7383 26.8959 13.9959 26.8965C21.2554 26.8965 27.1486 21.1229 27.1556 14.004C27.1619 6.87773 21.2484 1.08368 13.9807 1.0967ZM13.9744 24.9114C7.83383 24.8965 2.85775 20.0058 2.86218 13.9904C2.86661 7.96016 7.87115 3.06628 14.018 3.08116C20.1611 3.09604 25.1353 7.98434 25.1309 14.0022C25.1264 20.0324 20.1219 24.9269 13.9744 24.9114ZM20.3034 10.0512C19.8841 9.95763 19.5514 10.1151 19.2534 10.409C17.2547 12.3798 15.2489 14.3444 13.2451 16.3109C13.1648 16.3896 13.0806 16.4646 12.9851 16.5533C12.8902 16.4652 12.8061 16.3902 12.7258 16.3115C11.7277 15.332 10.7378 14.3444 9.72571 13.3785C9.54861 13.2086 9.2937 13.0729 9.05207 13.0214C8.62385 12.9309 8.20386 13.1857 8.01789 13.5695C7.82624 13.965 7.90594 14.3903 8.25383 14.7325C9.53343 15.991 10.8162 17.2464 12.0983 18.503C12.7245 19.1168 13.2419 19.1205 13.8612 18.5136C16.1193 16.3003 18.3774 14.0865 20.6355 11.872C20.7171 11.7921 20.8031 11.7133 20.8733 11.6234C21.3212 11.0525 21.0188 10.2118 20.3034 10.0512Z" fill="white"/>
<path d="M13.9807 1.0967C6.71806 1.1091 0.831775 6.89013 0.837468 14.0034C0.84316 21.1198 6.7383 26.8959 13.9959 26.8965C21.2554 26.8965 27.1486 21.1229 27.1556 14.004C27.1619 6.87773 21.2484 1.08368 13.9807 1.0967ZM13.9744 24.9114C7.83383 24.8965 2.85775 20.0058 2.86218 13.9904C2.86661 7.96016 7.87115 3.06628 14.018 3.08116C20.1611 3.09604 25.1353 7.98434 25.1309 14.0022C25.1264 20.0324 20.1219 24.9269 13.9744 24.9114Z" fill="#B3B3B3"/>
<path d="M20.8734 11.6236C20.8032 11.7135 20.7171 11.7922 20.6355 11.8722C18.3774 14.0866 16.1193 16.3005 13.8612 18.5137C13.2419 19.1206 12.7245 19.1169 12.0983 18.5032C10.8162 17.2465 9.53345 15.9911 8.25386 14.7326C7.90597 14.3904 7.82627 13.9651 8.01792 13.5696C8.20389 13.1858 8.62388 12.931 9.0521 13.0216C9.29373 13.073 9.54863 13.2088 9.72574 13.3787C10.7378 14.3445 11.7277 15.3321 12.7258 16.3116C12.8061 16.3904 12.8903 16.4654 12.9851 16.5534C13.0807 16.4648 13.1648 16.3897 13.2451 16.311C15.249 14.3445 17.2547 12.3799 19.2535 10.4091C19.5514 10.1152 19.8841 9.95777 20.3035 10.0514C21.0188 10.212 21.3212 11.0526 20.8734 11.6236Z" fill="#0866FF"/>
</svg>
